<svg width="14" height="14" viewBox="0 0 14 14" fill="none" xmlns="http://www.w3.org/2000/svg">
<path d="M11.8105 5.5012L13.3105 4.0012C13.594 3.7177 13.75 3.3412 13.75 2.9407C13.75 2.5402 13.594 2.16295 13.3105 1.8802L12.121 0.690701C11.5367 0.105704 10.5842 0.105704 10 0.690701L8.5 2.1907L11.8105 5.5012Z" fill="#777A88"/>
<path d="M7.43979 3.25L1.97004 8.71975C1.89804 8.79175 1.84179 8.87725 1.80354 8.971L0.30354 12.721C0.19254 13 0.257041 13.318 0.470041 13.5303C0.613291 13.6735 0.80529 13.75 1.00029 13.75C1.09404 13.75 1.18854 13.7328 1.27854 13.6968L5.02854 12.1968C5.12304 12.1593 5.20854 12.1023 5.28054 12.0303L10.7503 6.5605L7.43979 3.25Z" fill="#777A88"/>
</svg>
