<svg width="17" height="16" viewBox="0 0 17 16" fill="none" xmlns="http://www.w3.org/2000/svg">
<path d="M11.1308 11.75L13.0793 15.125H11.781L9.8325 11.75H7.04925L5.10075 15.125H3.8025L5.751 11.75H2.25C2.10082 11.75 1.95774 11.6907 1.85225 11.5852C1.74676 11.4798 1.6875 11.3367 1.6875 11.1875V1.625H0.5625C0.413316 1.625 0.270242 1.56574 0.164752 1.46025C0.0592632 1.35476 0 1.21168 0 1.0625C0 0.913316 0.0592632 0.770242 0.164752 0.664753C0.270242 0.559263 0.413316 0.5 0.5625 0.5H16.3125C16.4617 0.5 16.6048 0.559263 16.7102 0.664753C16.8157 0.770242 16.875 0.913316 16.875 1.0625C16.875 1.21168 16.8157 1.35476 16.7102 1.46025C16.6048 1.56574 16.4617 1.625 16.3125 1.625H15.1875V11.1875C15.1875 11.3367 15.1282 11.4798 15.0227 11.5852C14.9173 11.6907 14.7742 11.75 14.625 11.75H11.1308ZM14.0625 1.625H2.8125V10.625H14.0625V1.625ZM5.625 6.125C5.77418 6.125 5.91726 6.18426 6.02275 6.28975C6.12824 6.39524 6.1875 6.53832 6.1875 6.6875V7.8125C6.1875 7.96168 6.12824 8.10476 6.02275 8.21025C5.91726 8.31574 5.77418 8.375 5.625 8.375C5.47582 8.375 5.33274 8.31574 5.22725 8.21025C5.12176 8.10476 5.0625 7.96168 5.0625 7.8125V6.6875C5.0625 6.53832 5.12176 6.39524 5.22725 6.28975C5.33274 6.18426 5.47582 6.125 5.625 6.125ZM8.4375 5C8.58668 5 8.72976 5.05926 8.83525 5.16475C8.94074 5.27024 9 5.41332 9 5.5625V7.8125C9 7.96168 8.94074 8.10476 8.83525 8.21025C8.72976 8.31574 8.58668 8.375 8.4375 8.375C8.28832 8.375 8.14524 8.31574 8.03975 8.21025C7.93426 8.10476 7.875 7.96168 7.875 7.8125V5.5625C7.875 5.41332 7.93426 5.27024 8.03975 5.16475C8.14524 5.05926 8.28832 5 8.4375 5ZM11.25 3.875C11.3992 3.875 11.5423 3.93426 11.6477 4.03975C11.7532 4.14524 11.8125 4.28832 11.8125 4.4375V7.8125C11.8125 7.96168 11.7532 8.10476 11.6477 8.21025C11.5423 8.31574 11.3992 8.375 11.25 8.375C11.1008 8.375 10.9577 8.31574 10.8523 8.21025C10.7468 8.10476 10.6875 7.96168 10.6875 7.8125V4.4375C10.6875 4.28832 10.7468 4.14524 10.8523 4.03975C10.9577 3.93426 11.1008 3.875 11.25 3.875Z" fill="#777A88"/>
</svg>
