<svg width="18" height="19" viewBox="0 0 18 19" fill="none" xmlns="http://www.w3.org/2000/svg">
<path d="M15.2499 16.5009C15.0579 16.5009 14.8659 16.4279 14.7199 16.2809L10.7549 12.3159C10.4619 12.0229 10.4619 11.5479 10.7549 11.2549C11.0479 10.9619 11.5229 10.9619 11.8159 11.2549L15.7809 15.2199C16.0739 15.5129 16.0739 15.9879 15.7809 16.2809C15.6349 16.4269 15.4429 16.5009 15.2509 16.5009H15.2499Z" fill="#777A88"/>
<path d="M7.75 14C4.58 14 2 11.42 2 8.25C2 5.08 4.58 2.5 7.75 2.5C10.92 2.5 13.5 5.08 13.5 8.25C13.5 11.42 10.92 14 7.75 14ZM7.75 4C5.407 4 3.5 5.907 3.5 8.25C3.5 10.593 5.407 12.5 7.75 12.5C10.093 12.5 12 10.593 12 8.25C12 5.907 10.093 4 7.75 4Z" fill="#777A88"/>
</svg>
