<svg width="16" height="12" viewBox="0 0 16 12" fill="none" xmlns="http://www.w3.org/2000/svg">
  <path fill-rule="evenodd" clip-rule="evenodd" d="M13.5589 0.170065C13.7768 -0.0566885 14.1302 -0.0566885 14.3481 0.170065L15.8365 1.71846C16.0545 1.94521 16.0545 2.31286 15.8365 2.53961L14.3481 4.088C14.1302 4.31476 13.7768 4.31476 13.5589 4.088C13.3409 3.86125 13.3409 3.4936 13.5589 3.26685L14.0944 2.70968H12.7606C12.1326 2.70968 11.7011 2.71031 11.3615 2.74464C11.0341 2.77776 10.836 2.83899 10.6716 2.93578C10.5073 3.03257 10.3549 3.17779 10.1591 3.45288C9.95618 3.73807 9.73359 4.12273 9.41047 4.68303L7.53281 7.93867C7.22702 8.46892 6.97705 8.90231 6.73802 9.23816C6.4882 9.58918 6.22587 9.87013 5.87837 10.0748C5.53087 10.2794 5.16437 10.3689 4.74648 10.4112C4.34669 10.4516 3.86084 10.4516 3.2665 10.4516H0.55814C0.249891 10.4516 0 10.1917 0 9.87098C0 9.55031 0.249891 9.29034 0.55814 9.29034H3.23934C3.86743 9.29034 4.29898 9.28972 4.63849 9.25534C4.96595 9.22229 5.16405 9.16105 5.32838 9.06419C5.4927 8.96742 5.6451 8.82226 5.84088 8.54711C6.04385 8.26197 6.2664 7.87728 6.58955 7.31699L8.46721 4.06132C8.773 3.53112 9.02297 3.0977 9.262 2.76186C9.51182 2.41082 9.77415 2.12991 10.1217 1.92523C10.4691 1.72055 10.8357 1.63105 11.2535 1.58879C11.6533 1.54837 12.1392 1.54838 12.7335 1.54839H14.0944L13.5589 0.991223C13.3409 0.764469 13.3409 0.396819 13.5589 0.170065ZM4.82331 2.74177C4.67736 2.71222 4.51224 2.70968 4.03172 2.70968H0.55814C0.249891 2.70968 0 2.44971 0 2.12903C0 1.80835 0.249891 1.54839 0.55814 1.54839H4.03172C4.05004 1.54839 4.0681 1.54838 4.08592 1.54838C4.49171 1.54828 4.77158 1.54821 5.03657 1.60187C5.63152 1.72234 6.1726 2.04105 6.57802 2.5098C6.75856 2.71859 6.90248 2.96828 7.11123 3.33034C7.12038 3.34624 7.12968 3.36235 7.13906 3.37869C7.29765 3.65366 7.21199 4.01034 6.94765 4.17532C6.68332 4.34031 6.34046 4.25115 6.18187 3.97616C5.93464 3.54751 5.8476 3.40152 5.74816 3.28652C5.50491 3.00528 5.18027 2.81405 4.82331 2.74177ZM9.05236 7.82471C9.3167 7.65973 9.65955 7.74884 9.81813 8.02383C10.0654 8.4525 10.1524 8.59852 10.2518 8.71348C10.4951 8.99475 10.8197 9.18598 11.1767 9.25828C11.3227 9.28778 11.4878 9.29034 11.9683 9.29034H14.0944L13.5589 8.73315C13.3409 8.50639 13.3409 8.1388 13.5589 7.91204C13.7768 7.68528 14.1302 7.68528 14.3481 7.91204L15.8365 9.46043C16.0545 9.68719 16.0545 10.0548 15.8365 10.2815L14.3481 11.8299C14.1302 12.0567 13.7768 12.0567 13.5589 11.8299C13.3409 11.6032 13.3409 11.2356 13.5589 11.0088L14.0944 10.4516H11.9683C11.95 10.4516 11.9319 10.4516 11.9141 10.4516C11.5083 10.4517 11.2284 10.4518 10.9634 10.3981C10.3685 10.2777 9.82743 9.95901 9.422 9.49023C9.24146 9.28143 9.09754 9.03176 8.88879 8.66967C8.87964 8.65379 8.87034 8.63769 8.86096 8.62136C8.70237 8.34636 8.78803 7.98969 9.05236 7.82471Z" fill="black"/>
</svg>
